General
Complete name                            : A Farewell to Arms [1957] DVDRip XviD - CODY.avi
Format                                   : AVI
Format/Info                              : Audio Video Interleave
Format profile                           : OpenDML
Format settings                          : rec
File size                                : 1.72 GiB
Duration                                 : 2h 25mn
Overall bit rate mode                    : Variable
Overall bit rate                         : 1 689 Kbps
Writing application                      : AVI-Mux GUI 1.17.8.3, Feb 16 201019:42:50

Video
ID                                       : 0
Format                                   : MPEG-4 Visual
Format profile                           : Advanced Simple@L5
Format settings, BVOP                    : 4
Format settings, QPel                    : No
Format settings, GMC                     : No warppoints
Format settings, Matrix                  : Default (H.263)
Codec ID                                 : XVID
Codec ID/Hint                            : XviD
Duration                                 : 2h 25mn
Bit rate                                 : 1 488 Kbps
Width                                    : 720 pixels
Height                                   : 304 pixels
Display aspect ratio                     : 2.35:1
Frame rate                               : 25.000 fps
Color space                              : YUV
Chroma subsampling                       : 4:2:0
Bit depth                                : 8 bits
Scan type                                : Progressive
Compression mode                         : Lossy
Bits/(Pixel*Frame)                       : 0.272
Stream size                              : 1.52 GiB (88%)
Writing library                          : XviD 1.2.1 (UTC 2008-12-04)

Audio
ID                                       : 1
Format                                   : MPEG Audio
Format version                           : Version 1
Format profile                           : Layer 3
Mode                                     : Joint stereo
Mode extension                           : MS Stereo
Codec ID                                 : 55
Codec ID/Hint                            : MP3
Duration                                 : 2h 25mn
Bit rate mode                            : Variable
Bit rate                                 : 192 Kbps
Channel(s)                               : 2 channels
Sampling rate                            : 48.0 KHz
Compression mode                         : Lossy
Stream size                              : 200 MiB (11%)
Alignment                                : Aligned on interleaves
Interleave, duration                     : 24 ms (0.60 video frame)
Interleave, preload duration             : 172 ms
Title                                    : A Farewell to Arms [1957] DVDRip XviD - CODY_Only Audio
Writing library                          : LAME3.98r
Encoding settings                        : -m j -V 4 -q 2 -lowpass 18.6 -b 192




IMDB link:                                 http://www.imdb.com/title/tt0050379/




Subtitles included                       : Romanian





Please seed at least 1,5:1. This way this torrent has a chance to survive !




Thanks. Enjoy !!
